<svg width="48" height="54" viewBox="0 0 48 54" fill="none" xmlns="http://www.w3.org/2000/svg">
<g id="Group">
<path id="Vector" fill-rule="evenodd" clip-rule="evenodd" d="M39.4125 0.912494L40.05 0.992493C41.735 1.22499 43.965 1.53749 45.2275 2.80249C46.2625 3.83499 46.66 5.51499 46.8975 7.01499L47.0375 7.97999C47.3525 10.255 47.435 13.235 46.8975 16.545C45.8375 23.0775 42.36 30.8725 33.6275 36.9075C33.58 37.3775 33.5775 37.8525 33.5875 38.3275L33.6125 39.0375C33.6525 40.13 33.6925 41.2225 33.3875 42.2825C32.9125 43.9325 31.22 45.02 29.6375 45.8L28.8625 46.1675L27.8625 46.6075C25.9925 47.4025 23.4675 48.2175 21.885 46.6325C20.935 45.685 20.545 44.295 20.2275 42.9125L20.11 42.395C19.9757 41.7421 19.8088 41.0963 19.61 40.46C19.485 40.0933 19.35 39.7225 19.205 39.3475C19.0454 39.5434 18.876 39.7312 18.6975 39.91C17.835 40.7725 16.5475 41.375 15.4875 41.7975C14.33 42.255 13.02 42.655 11.8075 42.985L11.185 43.15L9.9925 43.4475L8.9125 43.6975L7.62 43.9725L6.8125 44.13C6.40977 44.2046 5.99495 44.18 5.60382 44.0585C5.21268 43.9371 4.85696 43.7222 4.56735 43.4326C4.27774 43.143 4.06293 42.7873 3.94144 42.3962C3.81995 42.005 3.79543 41.5902 3.87 41.1875L4.085 40.11L4.47 38.365L4.78 37.09L5.015 36.19C5.345 34.98 5.745 33.67 6.205 32.515C6.625 31.4525 7.2275 30.165 8.09 29.3025L8.29 29.11L8.13 29.045C7.70268 28.8827 7.26993 28.7351 6.8325 28.6025L6.14 28.39C4.405 27.865 2.55 27.3 1.3975 26.145C-0.00250155 24.7475 0.469998 22.62 1.145 20.85L1.42 20.165L1.8625 19.165L2.23 18.39C3.01 16.81 4.0975 15.1175 5.7475 14.6425C6.6225 14.3925 7.5325 14.3775 8.4475 14.4025L8.9975 14.42C9.7125 14.445 10.425 14.4725 11.1225 14.405C17.1575 5.66999 24.9525 2.19249 31.485 1.13249C34.1056 0.702681 36.7721 0.628679 39.4125 0.912494ZM14.8825 32.6C14.4892 32.3085 14.0189 32.1388 13.53 32.1122C13.0411 32.0855 12.5552 32.203 12.1325 32.45L11.8575 32.635L11.625 32.8425L11.3125 33.2375C10.6625 34.1775 10.2925 35.4775 10.005 36.6925L9.735 37.8625L9.6075 38.395L10.085 38.28L11.13 38.04C12.575 37.7025 14.1775 37.265 15.1625 36.3775C15.5908 35.9494 15.8491 35.3805 15.8896 34.7763C15.9301 34.1722 15.7499 33.5738 15.3825 33.0925L15.1775 32.8575L15.1175 32.8L14.8825 32.6ZM32.84 15.165C32.3758 14.7006 31.8246 14.3322 31.218 14.0808C30.6114 13.8294 29.9613 13.7 29.3046 13.6999C28.648 13.6997 27.9978 13.829 27.3911 14.0801C26.7844 14.3313 26.2331 14.6995 25.7687 15.1637C25.3044 15.628 24.936 16.1791 24.6846 16.7857C24.4332 17.3923 24.3037 18.0425 24.3036 18.6991C24.3035 19.3557 24.4327 20.006 24.6839 20.6126C24.9351 21.2193 25.3033 21.7706 25.7675 22.235C26.705 23.1729 27.9767 23.6999 29.3029 23.7001C30.629 23.7004 31.9009 23.1738 32.8387 22.2362C33.7766 21.2987 34.3036 20.027 34.3039 18.7009C34.3041 17.3748 33.7775 16.1029 32.84 15.165Z" fill="#600FA0"/>
</g>
</svg>
