<svg width="47" height="48" viewBox="0 0 47 48" fill="none" xmlns="http://www.w3.org/2000/svg">
<g id="material-symbols:wallet">
<path id="Vector" d="M11.7501 40C9.59592 40 7.75182 39.2167 6.21779 37.65C4.68376 36.0833 3.91675 34.2 3.91675 32V16C3.91675 13.8 4.68376 11.9167 6.21779 10.35C7.75182 8.78333 9.59592 8 11.7501 8H35.2501C37.4043 8 39.2484 8.78333 40.7824 10.35C42.3164 11.9167 43.0834 13.8 43.0834 16V32C43.0834 34.2 42.3164 36.0833 40.7824 37.65C39.2484 39.2167 37.4043 40 35.2501 40H11.7501ZM11.7501 16H35.2501C35.9681 16 36.6536 16.0833 37.3063 16.25C37.9591 16.4167 38.5793 16.6833 39.1668 17.05V16C39.1668 14.9 38.7836 13.9587 38.0172 13.176C37.2509 12.3933 36.3285 12.0013 35.2501 12H11.7501C10.673 12 9.75128 12.392 8.98492 13.176C8.21855 13.96 7.83472 14.9013 7.83342 16V17.05C8.42092 16.6833 9.04105 16.4167 9.69383 16.25C10.3466 16.0833 11.032 16 11.7501 16ZM8.12717 22.5L29.9136 27.9C30.2074 27.9667 30.5011 27.9667 30.7949 27.9C31.0886 27.8333 31.3661 27.7 31.6272 27.5L38.4324 21.7C38.0733 21.2 37.6164 20.792 37.0615 20.476C36.5067 20.16 35.9029 20.0013 35.2501 20H11.7501C10.9015 20 10.1593 20.2253 9.52346 20.676C8.88765 21.1267 8.42222 21.7347 8.12717 22.5Z" fill="#310083"/>
</g>
</svg>
