<svg width="40" height="42" viewBox="0 0 40 42" fill="none" xmlns="http://www.w3.org/2000/svg">
<g id="Group">
<path id="Vector" fill-rule="evenodd" clip-rule="evenodd" d="M20 0C31.046 0 40 8.58088 40 19.1666C40 29.7523 31.046 38.3332 20 38.3332C8.954 38.3332 0 29.7523 0 19.1666C0 8.58088 8.954 0 20 0ZM29 16.2916C28.2044 16.2916 27.4413 16.5945 26.8787 17.1337C26.3161 17.6728 26 18.4041 26 19.1666C26 19.9291 26.3161 20.6604 26.8787 21.1995C27.4413 21.7387 28.2044 22.0416 29 22.0416C29.7956 22.0416 30.5587 21.7387 31.1213 21.1995C31.6839 20.6604 32 19.9291 32 19.1666C32 18.4041 31.6839 17.6728 31.1213 17.1337C30.5587 16.5945 29.7956 16.2916 29 16.2916ZM20 16.2916C19.2044 16.2916 18.4413 16.5945 17.8787 17.1337C17.3161 17.6728 17 18.4041 17 19.1666C17 19.9291 17.3161 20.6604 17.8787 21.1995C18.4413 21.7387 19.2044 22.0416 20 22.0416C20.7956 22.0416 21.5587 21.7387 22.1213 21.1995C22.6839 20.6604 23 19.9291 23 19.1666C23 18.4041 22.6839 17.6728 22.1213 17.1337C21.5587 16.5945 20.7956 16.2916 20 16.2916ZM11 16.2916C10.2044 16.2916 9.44129 16.5945 8.87868 17.1337C8.31607 17.6728 8 18.4041 8 19.1666C8 19.9291 8.31607 20.6604 8.87868 21.1995C9.44129 21.7387 10.2044 22.0416 11 22.0416C11.7956 22.0416 12.5587 21.7387 13.1213 21.1995C13.6839 20.6604 14 19.9291 14 19.1666C14 18.4041 13.6839 17.6728 13.1213 17.1337C12.5587 16.5945 11.7956 16.2916 11 16.2916Z" fill="#CC00CC"/>
</g>
</svg>
