<svg width="34" height="35" viewBox="0 0 34 35" fill="none" xmlns="http://www.w3.org/2000/svg">
<g id="Group">
<path id="Vector" fill-rule="evenodd" clip-rule="evenodd" d="M16.9999 0C26.2049 0 33.6666 7.15074 33.6666 15.9722C33.6666 24.7936 26.2049 31.9443 16.9999 31.9443C7.79492 31.9443 0.333252 24.7936 0.333252 15.9722C0.333252 7.15074 7.79492 0 16.9999 0ZM24.4999 13.5763C23.8369 13.5763 23.201 13.8288 22.7322 14.2781C22.2633 14.7274 21.9999 15.3367 21.9999 15.9722C21.9999 16.6076 22.2633 17.217 22.7322 17.6663C23.201 18.1156 23.8369 18.368 24.4999 18.368C25.163 18.368 25.7988 18.1156 26.2677 17.6663C26.7365 17.217 26.9999 16.6076 26.9999 15.9722C26.9999 15.3367 26.7365 14.7274 26.2677 14.2781C25.7988 13.8288 25.163 13.5763 24.4999 13.5763ZM16.9999 13.5763C16.3369 13.5763 15.701 13.8288 15.2322 14.2781C14.7633 14.7274 14.4999 15.3367 14.4999 15.9722C14.4999 16.6076 14.7633 17.217 15.2322 17.6663C15.701 18.1156 16.3369 18.368 16.9999 18.368C17.663 18.368 18.2988 18.1156 18.7677 17.6663C19.2365 17.217 19.4999 16.6076 19.4999 15.9722C19.4999 15.3367 19.2365 14.7274 18.7677 14.2781C18.2988 13.8288 17.663 13.5763 16.9999 13.5763ZM9.49992 13.5763C8.83688 13.5763 8.20099 13.8288 7.73215 14.2781C7.26331 14.7274 6.99992 15.3367 6.99992 15.9722C6.99992 16.6076 7.26331 17.217 7.73215 17.6663C8.20099 18.1156 8.83688 18.368 9.49992 18.368C10.163 18.368 10.7988 18.1156 11.2677 17.6663C11.7365 17.217 11.9999 16.6076 11.9999 15.9722C11.9999 15.3367 11.7365 14.7274 11.2677 14.2781C10.7988 13.8288 10.163 13.5763 9.49992 13.5763Z" fill="#CC00CC"/>
</g>
</svg>
