<svg width="60" height="60" viewBox="0 0 60 60" fill="none" xmlns="http://www.w3.org/2000/svg">
<g id="mdi:account-cog">
<path id="Vector" d="M25 10C22.3478 10 19.8043 11.0536 17.9289 12.9289C16.0536 14.8043 15 17.3478 15 20C15 22.6522 16.0536 25.1957 17.9289 27.0711C19.8043 28.9464 22.3478 30 25 30C27.6522 30 30.1957 28.9464 32.0711 27.0711C33.9464 25.1957 35 22.6522 35 20C35 17.3478 33.9464 14.8043 32.0711 12.9289C30.1957 11.0536 27.6522 10 25 10ZM42.5 30C42.3472 29.9972 42.1983 30.0482 42.0795 30.1442C41.9606 30.2402 41.8794 30.375 41.85 30.525L41.375 33.825C40.625 34.15 39.9 34.55 39.25 35L36.15 33.75C35.875 33.75 35.55 33.75 35.375 34.075L32.875 38.4C32.725 38.675 32.775 39 33.025 39.2L35.675 41.25C35.5754 42.0804 35.5754 42.9196 35.675 43.75L33.025 45.8C32.9127 45.8963 32.8366 46.0282 32.8093 46.1736C32.782 46.3191 32.8052 46.4695 32.875 46.6L35.375 50.925C35.525 51.25 35.85 51.25 36.15 51.25L39.25 50C39.9 50.45 40.6 50.875 41.375 51.175L41.85 54.475C41.9 54.775 42.15 55 42.5 55H47.5C47.775 55 48.05 54.775 48.1 54.475L48.575 51.175C49.325 50.85 50 50.45 50.675 50L53.75 51.25C54.075 51.25 54.4 51.25 54.575 50.925L57.075 46.6C57.1448 46.4695 57.168 46.3191 57.1407 46.1736C57.1134 46.0282 57.0373 45.8963 56.925 45.8L54.25 43.75C54.3 43.325 54.35 42.925 54.35 42.5C54.35 42.075 54.325 41.675 54.25 41.25L56.9 39.2C57.0123 39.1037 57.0884 38.9718 57.1157 38.8264C57.143 38.6809 57.1198 38.5305 57.05 38.4L54.55 34.075C54.4 33.75 54.075 33.75 53.75 33.75L50.675 35C50 34.55 49.325 34.125 48.55 33.825L48.075 30.525C48.0592 30.3826 47.9922 30.2508 47.8864 30.1542C47.7806 30.0576 47.6432 30.0028 47.5 30H42.5ZM25 35C13.95 35 5 39.475 5 45V50H29.2C28.0842 47.657 27.5036 45.0951 27.5 42.5C27.5051 39.9883 28.0508 37.5071 29.1 35.225C27.775 35.075 26.4 35 25 35ZM45 38.75C47.075 38.75 48.75 40.425 48.75 42.5C48.75 44.575 47.075 46.25 45 46.25C42.9 46.25 41.25 44.575 41.25 42.5C41.25 40.425 42.925 38.75 45 38.75Z" fill="#600FA0"/>
</g>
</svg>
