<svg width="30" height="30" viewBox="0 0 30 30" fill="none" xmlns="http://www.w3.org/2000/svg">
<g id="fluent-mdl2:add-online-meeting">
<path id="Vector" d="M15 0C16.377 0 17.7051 0.175781 18.9844 0.527344C20.2637 0.878906 21.46 1.38184 22.5732 2.03613C23.6865 2.69043 24.6973 3.47168 25.6055 4.37988C26.5137 5.28809 27.2949 6.30371 27.9492 7.42676C28.6035 8.5498 29.1064 9.74609 29.458 11.0156C29.8096 12.2852 29.9902 13.6133 30 15C30 15.9668 29.9072 16.9189 29.7217 17.8564C29.5361 18.7939 29.2627 19.7168 28.9014 20.625H24.375V18.75H27.5684C27.9395 17.5195 28.125 16.2695 28.125 15C28.125 13.7012 27.9443 12.4512 27.583 11.25H22.2656C22.3438 11.875 22.4023 12.4951 22.4414 13.1104C22.4805 13.7256 22.5 14.3555 22.5 15H20.625C20.625 14.3652 20.6055 13.7402 20.5664 13.125C20.5273 12.5098 20.4639 11.8848 20.376 11.25H9.62402C9.5459 11.875 9.4873 12.4951 9.44824 13.1104C9.40918 13.7256 9.38477 14.3555 9.375 15C9.375 15.6348 9.39453 16.2598 9.43359 16.875C9.47266 17.4902 9.53613 18.1152 9.62402 18.75H18.75V20.625H9.94629C10.0244 21.0059 10.1367 21.4551 10.2832 21.9727C10.4297 22.4902 10.6104 23.0273 10.8252 23.584C11.04 24.1406 11.2842 24.6875 11.5576 25.2246C11.8311 25.7617 12.1484 26.25 12.5098 26.6895C12.8711 27.1289 13.252 27.4756 13.6523 27.7295C14.0527 27.9834 14.502 28.1152 15 28.125C15.293 28.125 15.5713 28.0713 15.835 27.9639C16.0986 27.8564 16.3477 27.71 16.582 27.5244C16.8164 27.3389 17.0312 27.1387 17.2266 26.9238C17.4219 26.709 17.6025 26.4844 17.7686 26.25H18.75V29.502C18.1348 29.668 17.5146 29.79 16.8896 29.8682C16.2646 29.9463 15.6348 29.9902 15 30C13.623 30 12.2949 29.8242 11.0156 29.4727C9.73633 29.1211 8.54004 28.6182 7.42676 27.9639C6.31348 27.3096 5.30273 26.5283 4.39453 25.6201C3.48633 24.7119 2.70508 23.6963 2.05078 22.5732C1.39648 21.4502 0.893555 20.2588 0.541992 18.999C0.19043 17.7393 0.00976562 16.4062 0 15C0 13.623 0.175781 12.2949 0.527344 11.0156C0.878906 9.73633 1.38184 8.54004 2.03613 7.42676C2.69043 6.31348 3.47168 5.30273 4.37988 4.39453C5.28809 3.48633 6.30371 2.70508 7.42676 2.05078C8.5498 1.39648 9.74121 0.893555 11.001 0.541992C12.2607 0.19043 13.5938 0.00976562 15 0ZM10.708 2.59277C9.87793 2.87598 9.0918 3.24219 8.34961 3.69141C7.60742 4.14062 6.90918 4.65332 6.25488 5.22949C5.60059 5.80566 5.01953 6.44043 4.51172 7.13379C4.00391 7.82715 3.5498 8.57422 3.14941 9.375H8.02734C8.13477 8.79883 8.2666 8.21289 8.42285 7.61719C8.5791 7.02148 8.76953 6.43066 8.99414 5.84473C9.21875 5.25879 9.47266 4.69238 9.75586 4.14551C10.0391 3.59863 10.3564 3.08105 10.708 2.59277ZM10.708 27.4072C10.3564 26.9287 10.0391 26.416 9.75586 25.8691C9.47266 25.3223 9.22363 24.7559 9.00879 24.1699C8.79395 23.584 8.60352 22.9932 8.4375 22.3975C8.27148 21.8018 8.13477 21.2109 8.02734 20.625H3.14941C3.53027 21.416 3.97949 22.1582 4.49707 22.8516C5.01465 23.5449 5.60059 24.1846 6.25488 24.7705C6.90918 25.3564 7.60254 25.8691 8.33496 26.3086C9.06738 26.748 9.8584 27.1143 10.708 27.4072ZM7.73438 18.75C7.65625 18.125 7.59766 17.5049 7.55859 16.8896C7.51953 16.2744 7.5 15.6445 7.5 15C7.5 14.3652 7.51953 13.7402 7.55859 13.125C7.59766 12.5098 7.65625 11.8848 7.73438 11.25H2.41699C2.05566 12.4512 1.875 13.7012 1.875 15C1.875 16.2988 2.05566 17.5488 2.41699 18.75H7.73438ZM20.0537 9.375C19.9756 8.99414 19.8633 8.54492 19.7168 8.02734C19.5703 7.50977 19.3896 6.97266 19.1748 6.41602C18.96 5.85938 18.7158 5.3125 18.4424 4.77539C18.1689 4.23828 17.8516 3.75 17.4902 3.31055C17.1289 2.87109 16.748 2.52441 16.3477 2.27051C15.9473 2.0166 15.498 1.88477 15 1.875C14.5215 1.875 14.0771 2.00684 13.667 2.27051C13.2568 2.53418 12.8711 2.88086 12.5098 3.31055C12.1484 3.74023 11.8359 4.22363 11.5723 4.76074C11.3086 5.29785 11.0596 5.84961 10.8252 6.41602C10.5908 6.98242 10.4102 7.51953 10.2832 8.02734C10.1562 8.53516 10.0439 8.98438 9.94629 9.375H20.0537ZM26.8506 9.375C26.4697 8.58398 26.0205 7.8418 25.5029 7.14844C24.9854 6.45508 24.3994 5.81543 23.7451 5.22949C23.0908 4.64355 22.3975 4.13086 21.665 3.69141C20.9326 3.25195 20.1416 2.88574 19.292 2.59277C19.6436 3.07129 19.9609 3.58398 20.2441 4.13086C20.5273 4.67773 20.7764 5.24414 20.9912 5.83008C21.2061 6.41602 21.3965 7.00684 21.5625 7.60254C21.7285 8.19824 21.8652 8.78906 21.9727 9.375H26.8506ZM22.5 22.5H28.125V24.375H22.5V30H20.625V24.375H15V22.5H20.625V16.875H22.5V22.5Z" fill="#CC00CC"/>
</g>
</svg>
