<svg width="60" height="60" viewBox="0 0 60 60" fill="none" xmlns="http://www.w3.org/2000/svg">
<g id="material-symbols-light:other-admission">
<path id="Vector" d="M39.5675 46.9725C40.0342 46.9725 40.4317 46.8083 40.76 46.48C41.0867 46.1533 41.25 45.7567 41.25 45.29C41.25 44.8217 41.0867 44.4242 40.76 44.0975C40.4333 43.7692 40.0358 43.605 39.5675 43.605C39.0992 43.605 38.7017 43.7692 38.375 44.0975C38.0483 44.4258 37.885 44.8233 37.885 45.29C37.885 45.7567 38.0483 46.1533 38.375 46.48C38.7017 46.8083 39.0992 46.9725 39.5675 46.9725ZM45 46.9725C45.4667 46.9725 45.8642 46.8083 46.1925 46.48C46.5192 46.1533 46.6825 45.7567 46.6825 45.29C46.6825 44.8217 46.5192 44.4242 46.1925 44.0975C45.8658 43.7692 45.4683 43.605 45 43.605C44.5317 43.605 44.1342 43.7692 43.8075 44.0975C43.4808 44.4258 43.3175 44.8233 43.3175 45.29C43.3175 45.7567 43.4808 46.1533 43.8075 46.48C44.1342 46.8083 44.5317 46.9725 45 46.9725ZM50.4325 46.9725C50.8992 46.9725 51.2967 46.8083 51.625 46.48C51.9517 46.1533 52.115 45.7567 52.115 45.29C52.115 44.8217 51.9517 44.4242 51.625 44.0975C51.2983 43.7692 50.9008 43.605 50.4325 43.605C49.9642 43.605 49.5667 43.7692 49.24 44.0975C48.9133 44.4258 48.75 44.8233 48.75 45.29C48.75 45.7567 48.9133 46.1533 49.24 46.48C49.5667 46.8083 49.9642 46.9725 50.4325 46.9725ZM45 55.2875C42.215 55.2875 39.8525 54.3175 37.9125 52.3775C35.9708 50.4375 35 48.075 35 45.29C35 42.505 35.9708 40.1417 37.9125 38.2C39.8542 36.2583 42.2167 35.2883 45 35.29C47.7833 35.2917 50.1467 36.2617 52.09 38.2C54.0333 40.1383 55.0033 42.5017 55 45.29C55 48.0733 54.03 50.4358 52.09 52.3775C50.1467 54.3192 47.7833 55.2875 45 55.2875ZM18.75 21.825H41.25V19.325H18.75V21.825ZM28.8025 50H14.04C12.92 50 11.9667 49.6067 11.18 48.82C10.3933 48.0333 10 47.0808 10 45.9625V14.0375C10 12.9208 10.3933 11.9683 11.18 11.18C11.9667 10.3933 12.92 10 14.04 10H45.9625C47.0792 10 48.0317 10.3933 48.82 11.18C49.6067 11.9667 50 12.92 50 14.04V28.915C49.1767 28.6517 48.3508 28.4458 47.5225 28.2975C46.6925 28.1508 45.8517 28.0775 45 28.0775C44.1567 28.0775 43.3367 28.1442 42.54 28.2775C41.745 28.4108 40.9625 28.5992 40.1925 28.8425V28.75H18.75V31.25H35.2175C33.9542 32.1183 32.8442 33.1375 31.8875 34.3075C30.9308 35.4775 30.1433 36.7658 29.525 38.1725H18.75V40.6725H28.65C28.47 41.3775 28.3292 42.0883 28.2275 42.805C28.1275 43.5217 28.0775 44.2533 28.0775 45C28.0775 45.7667 28.1225 46.6075 28.2125 47.5225C28.3025 48.4375 28.4992 49.2633 28.8025 50Z" fill="#600FA0"/>
</g>
</svg>
