<svg width="25" height="25" viewBox="0 0 25 25" fill="none" xmlns="http://www.w3.org/2000/svg">
<g id="streamline:payment-10-solid">
<path id="Vector" fill-rule="evenodd" clip-rule="evenodd" d="M2.67857 0C1.96817 0 1.28686 0.282206 0.784535 0.784535C0.282206 1.28686 0 1.96817 0 2.67857L0 13.3929C0 14.1033 0.282206 14.7846 0.784535 15.2869C1.28686 15.7892 1.96817 16.0714 2.67857 16.0714H22.3214C23.0318 16.0714 23.7131 15.7892 24.2155 15.2869C24.7178 14.7846 25 14.1033 25 13.3929V2.67857C25 1.96817 24.7178 1.28686 24.2155 0.784535C23.7131 0.282206 23.0318 0 22.3214 0L2.67857 0ZM13.6161 2.59643C13.6161 2.30043 13.4985 2.01655 13.2892 1.80725C13.0799 1.59794 12.796 1.48036 12.5 1.48036C12.204 1.48036 11.9201 1.59794 11.7108 1.80725C11.5015 2.01655 11.3839 2.30043 11.3839 2.59643V3.31071C10.7413 3.38602 10.1461 3.68667 9.70418 4.15926C9.26223 4.63185 9.0021 5.24579 8.96998 5.89204C8.93786 6.53828 9.13583 7.17499 9.52874 7.68908C9.92165 8.20316 10.4841 8.56134 11.1161 8.7L13.2536 9.16607C13.4257 9.19872 13.5791 9.29502 13.6834 9.43577C13.7876 9.57653 13.835 9.7514 13.8161 9.92553C13.7972 10.0997 13.7133 10.2603 13.5813 10.3753C13.4492 10.4904 13.2787 10.5515 13.1036 10.5464H11.8964C11.752 10.5469 11.611 10.5025 11.493 10.4193C11.3749 10.3361 11.2856 10.2183 11.2375 10.0821C11.132 9.81254 10.9258 9.59449 10.6626 9.47402C10.3993 9.35356 10.0995 9.34011 9.82655 9.43651C9.55356 9.53292 9.32871 9.73163 9.19948 9.9907C9.07024 10.2498 9.04674 10.5489 9.13393 10.825C9.48036 11.8071 10.3357 12.5482 11.3839 12.7339V13.475C11.3839 13.771 11.5015 14.0549 11.7108 14.2642C11.9201 14.4735 12.204 14.5911 12.5 14.5911C12.796 14.5911 13.0799 14.4735 13.2892 14.2642C13.4985 14.0549 13.6161 13.771 13.6161 13.475V12.7321C14.2842 12.6138 14.8905 12.2672 15.3315 11.7516C15.7726 11.236 16.0211 10.5834 16.0346 9.90498C16.0481 9.22661 15.8257 8.56458 15.4055 8.03187C14.9853 7.49916 14.3932 7.12878 13.7304 6.98393L11.5929 6.51786C11.471 6.49229 11.3631 6.42237 11.2899 6.32167C11.2168 6.22097 11.1837 6.09668 11.197 5.97293C11.2104 5.84919 11.2692 5.73482 11.3622 5.65204C11.4551 5.56927 11.5755 5.52399 11.7 5.525H13.1036C13.248 5.52452 13.389 5.56894 13.507 5.65212C13.6251 5.73531 13.7144 5.85313 13.7625 5.98929C13.8076 6.13205 13.8809 6.26429 13.9782 6.37812C14.0754 6.49196 14.1946 6.58506 14.3286 6.65189C14.4625 6.71872 14.6086 6.75791 14.758 6.76713C14.9075 6.77635 15.0572 6.75541 15.1984 6.70556C15.3396 6.6557 15.4693 6.57795 15.5798 6.47694C15.6903 6.37592 15.7793 6.25371 15.8416 6.11757C15.9039 5.98142 15.9382 5.83414 15.9424 5.68448C15.9466 5.53482 15.9206 5.38585 15.8661 5.24643C15.6936 4.75757 15.3944 4.32327 14.9991 3.98789C14.6037 3.65251 14.1265 3.42807 13.6161 3.3375V2.59643ZM4.91071 6.69643C5.26591 6.69643 5.60657 6.83753 5.85773 7.0887C6.1089 7.33986 6.25 7.68051 6.25 8.03572C6.25 8.39092 6.1089 8.73157 5.85773 8.98273C5.60657 9.2339 5.26591 9.375 4.91071 9.375C4.55551 9.375 4.21486 9.2339 3.9637 8.98273C3.71253 8.73157 3.57143 8.39092 3.57143 8.03572C3.57143 7.68051 3.71253 7.33986 3.9637 7.0887C4.21486 6.83753 4.55551 6.69643 4.91071 6.69643ZM20.0893 6.69643C20.4445 6.69643 20.7851 6.83753 21.0363 7.0887C21.2875 7.33986 21.4286 7.68051 21.4286 8.03572C21.4286 8.39092 21.2875 8.73157 21.0363 8.98273C20.7851 9.2339 20.4445 9.375 20.0893 9.375C19.7341 9.375 19.3934 9.2339 19.1423 8.98273C18.8911 8.73157 18.75 8.39092 18.75 8.03572C18.75 7.68051 18.8911 7.33986 19.1423 7.0887C19.3934 6.83753 19.7341 6.69643 20.0893 6.69643ZM8.03571 17.6339C8.65179 17.6339 9.15179 18.1339 9.15179 18.75V22.3214C9.15179 22.6174 9.0342 22.9013 8.8249 23.1106C8.61559 23.3199 8.33171 23.4375 8.03571 23.4375C7.73971 23.4375 7.45584 23.3199 7.24653 23.1106C7.03723 22.9013 6.91964 22.6174 6.91964 22.3214V18.75C6.91964 18.1339 7.41964 17.6339 8.03571 17.6339ZM18.0804 18.75C18.0804 18.6034 18.0515 18.4583 17.9954 18.3229C17.9393 18.1875 17.8571 18.0645 17.7535 17.9608C17.6498 17.8572 17.5268 17.775 17.3914 17.7189C17.256 17.6628 17.1108 17.6339 16.9643 17.6339C16.8177 17.6339 16.6726 17.6628 16.5372 17.7189C16.4018 17.775 16.2787 17.8572 16.1751 17.9608C16.0715 18.0645 15.9893 18.1875 15.9332 18.3229C15.8771 18.4583 15.8482 18.6034 15.8482 18.75V22.3214C15.8482 22.468 15.8771 22.6131 15.9332 22.7485C15.9893 22.8839 16.0715 23.007 16.1751 23.1106C16.2787 23.2142 16.4018 23.2965 16.5372 23.3525C16.6726 23.4086 16.8177 23.4375 16.9643 23.4375C17.1108 23.4375 17.256 23.4086 17.3914 23.3525C17.5268 23.2965 17.6498 23.2142 17.7535 23.1106C17.8571 23.007 17.9393 22.8839 17.9954 22.7485C18.0515 22.6131 18.0804 22.468 18.0804 22.3214V18.75ZM13.6161 20.0893C13.6161 19.7933 13.4985 19.5094 13.2892 19.3001C13.0799 19.0908 12.796 18.9732 12.5 18.9732C12.204 18.9732 11.9201 19.0908 11.7108 19.3001C11.5015 19.5094 11.3839 19.7933 11.3839 20.0893V23.6607C11.3839 23.9567 11.5015 24.2406 11.7108 24.4499C11.9201 24.6592 12.204 24.7768 12.5 24.7768C12.796 24.7768 13.0799 24.6592 13.2892 24.4499C13.4985 24.2406 13.6161 23.9567 13.6161 23.6607V20.0893Z" fill="#CC00CC"/>
</g>
</svg>
