<svg width="60" height="60" viewBox="0 0 60 60" fill="none" xmlns="http://www.w3.org/2000/svg">
<g id="mdi:payment-clock">
<path id="Vector" d="M43.75 42.05L49.85 45.575L47.975 48.825L40 44.225V35H43.75V42.05ZM60 42.5C60 52.175 52.175 60 42.5 60C32.825 60 25 52.175 25 42.5C25 41.65 25.075 40.825 25.2 40H5V10H50V26.7C55.9 29.525 60 35.525 60 42.5ZM26.7 35C27.15 34.1 27.625 33.25 28.2 32.425C27.975 32.5 27.75 32.5 27.5 32.5C23.35 32.5 20 29.15 20 25C20 20.85 23.35 17.5 27.5 17.5C31.65 17.5 35 20.85 35 25C35 25.625 34.9 26.25 34.75 26.825C37.1 25.675 39.725 25 42.5 25C43.35 25 44.175 25.075 45 25.2V20C43.6739 20 42.4021 19.4732 41.4645 18.5355C40.5268 17.5979 40 16.3261 40 15H15C15 17.775 12.775 20 10 20V30C11.3261 30 12.5979 30.5268 13.5355 31.4645C14.4732 32.4021 15 33.6739 15 35H26.7ZM55 42.5C55 35.6 49.4 30 42.5 30C35.6 30 30 35.6 30 42.5C30 49.4 35.6 55 42.5 55C49.4 55 55 49.4 55 42.5Z" fill="#600FA0"/>
</g>
</svg>
