<svg width="40" height="40" viewBox="0 0 40 40" fill="none" xmlns="http://www.w3.org/2000/svg">
<g id="bx:qr-scan">
<path id="Vector" d="M6.66659 6.66668H13.3499V3.33334H3.33325V13.3333H6.66659V6.66668ZM6.66659 26.6667H3.33325V36.6667H13.3499V33.3333H6.66659V26.6667ZM33.3333 33.3333H26.6666V36.6667H36.6666V26.6667H33.3333V33.3333ZM26.6666 6.66668H33.3333V13.3333H36.6666V3.33334H26.6666V6.66668Z" fill="#310083"/>
<path id="Vector_2" d="M8.33325 18.3333H18.3333V8.33334H8.33325V18.3333ZM11.6666 11.6667H14.9999V15H11.6666V11.6667ZM8.33325 31.6667H18.3333V21.6667H8.33325V31.6667ZM11.6666 25H14.9999V28.3333H11.6666V25ZM31.6666 8.33334H21.6666V18.3333H31.6666V8.33334ZM28.3333 15H24.9999V11.6667H28.3333V15ZM21.6833 21.6667H25.0166V25H21.6833V21.6667ZM25.0166 25H28.3499V28.3333H25.0166V25ZM28.3499 28.3333H31.6833V31.6667H28.3499V28.3333ZM28.3499 21.6667H31.6833V25H28.3499V21.6667Z" fill="#310083"/>
</g>
</svg>
