<svg width="28" height="28" viewBox="0 0 28 28" fill="none" xmlns="http://www.w3.org/2000/svg">
<g id="Group">
<path id="Vector" fill-rule="evenodd" clip-rule="evenodd" d="M15.25 16.5H16.5V17.75H15.25V16.5ZM16.5 17.75H17.75V19H16.5V17.75ZM16.5 19H17.75V20.25H16.5V19ZM19 19H20.25V20.25H19V19ZM19 20.25H20.25V21.5H19V20.25ZM15.25 19H16.5V20.25H15.25V19ZM17.75 19H19V20.25H17.75V19ZM17.75 20.25H19V21.5H17.75V20.25ZM21.5 19H22.75V20.25H21.5V19ZM21.5 17.75H22.75V19H21.5V17.75ZM22.75 16.5H24V17.75H22.75V16.5ZM20.25 19H21.5V20.25H20.25V19ZM20.25 20.25H21.5V21.5H20.25V20.25ZM19 21.5H20.25V22.75H19V21.5ZM17.75 21.5H19V22.75H17.75V21.5ZM20.25 21.5H21.5V22.75H20.25V21.5ZM21.5 21.5H22.75V22.75H21.5V21.5ZM19 22.75H20.25V24H19V22.75ZM16.5 22.75H17.75V24H16.5V22.75ZM17.75 22.75H19V24H17.75V22.75ZM15.25 22.75H16.5V24H15.25V22.75ZM15.25 24H16.5V25.25H15.25V24ZM16.5 25.25H17.75V26.5H16.5V25.25ZM17.75 25.25H19V26.5H17.75V25.25ZM20.25 25.25H21.5V26.5H20.25V25.25ZM21.5 25.25H22.75V26.5H21.5V25.25ZM20.25 22.75H21.5V24H20.25V22.75ZM21.5 22.75H22.75V24H21.5V22.75ZM22.75 21.5H24V22.75H22.75V21.5ZM22.75 20.25H24V21.5H22.75V20.25ZM22.75 24H24V25.25H22.75V24ZM22.75 22.75H24V24H22.75V22.75ZM24 21.5H25.25V22.75H24V21.5ZM24 20.25H25.25V21.5H24V20.25ZM25.25 24H26.5V25.25H25.25V24ZM25.25 21.5H26.5V22.75H25.25V21.5ZM25.25 22.75H26.5V24H25.25V22.75ZM22.75 19H24V20.25H22.75V19ZM15.25 20.25H16.5V21.5H15.25V20.25ZM14 20.25H15.25V21.5H14V20.25ZM14 21.5H15.25V22.75H14V21.5ZM16.5 21.5H17.75V22.75H16.5V21.5ZM12.75 21.5H14V22.75H12.75V21.5ZM15.25 21.5H16.5V22.75H15.25V21.5ZM12.75 22.75H14V24H12.75V22.75ZM12.75 24H14V25.25H12.75V24ZM12.75 0.25H14V1.5H12.75V0.25ZM14 1.5H15.25V2.75H14V1.5ZM12.75 4H14V5.25H12.75V4ZM14 5.25H15.25V6.5H14V5.25ZM12.75 6.5H14V7.75H12.75V6.5ZM14 6.5H15.25V7.75H14V6.5ZM14 7.75H15.25V9H14V7.75ZM14 9H15.25V10.25H14V9ZM12.75 10.25H14V11.5H12.75V10.25ZM14 10.25H15.25V11.5H14V10.25ZM12.75 11.5H14V12.75H12.75V11.5ZM0.25 12.75H1.5V14H0.25V12.75ZM1.5 14H2.75V15.25H1.5V14ZM4 12.75H5.25V14H4V12.75ZM4 14H5.25V15.25H4V14ZM5.25 12.75H6.5V14H5.25V12.75ZM6.5 14H7.75V15.25H6.5V14ZM7.75 12.75H9V14H7.75V12.75ZM9 14H10.25V15.25H9V14ZM9 12.75H10.25V14H9V12.75ZM10.25 12.75H11.5V14H10.25V12.75ZM11.5 12.75H12.75V14H11.5V12.75ZM12.75 14H14V15.25H12.75V14ZM15.25 14H16.5V15.25H15.25V14ZM16.5 12.75H17.75V14H16.5V12.75ZM17.75 12.75H19V14H17.75V12.75ZM19 12.75H20.25V14H19V12.75ZM17.75 15.25H19V16.5H17.75V15.25ZM15.25 26.5H16.5V27.75H15.25V26.5ZM14 26.5H15.25V27.75H14V26.5ZM14 15.25H15.25V16.5H14V15.25ZM12.75 15.25H14V16.5H12.75V15.25ZM12.75 16.5H14V17.75H12.75V16.5ZM12.75 17.75H14V19H12.75V17.75ZM26.5 16.5H27.75V17.75H26.5V16.5ZM25.25 17.75H26.5V19H25.25V17.75ZM26.5 20.25H27.75V21.5H26.5V20.25ZM20.25 15.25H21.5V16.5H20.25V15.25ZM21.5 14H22.75V15.25H21.5V14ZM26.5 14H27.75V15.25H26.5V14ZM26.5 15.25H27.75V16.5H26.5V15.25ZM25.25 15.25H26.5V16.5H25.25V15.25ZM26.5 25.25H27.75V26.5H26.5V25.25ZM25.25 26.5H26.5V27.75H25.25V26.5ZM22.75 26.5H24V27.75H22.75V26.5ZM26.5 26.5H27.75V27.75H26.5V26.5Z" fill="#CC00CC"/>
<path id="Vector_2" fill-rule="evenodd" clip-rule="evenodd" d="M17.75 1.5H26.5V10.25H17.75V1.5ZM1.5 1.5H10.25V10.25H1.5V1.5ZM1.5 17.75H10.25V26.5H1.5V17.75ZM21.5 5.25H22.75V6.5H21.5V5.25ZM5.25 5.25H6.5V6.5H5.25V5.25ZM5.25 21.5H6.5V22.75H5.25V21.5Z" stroke="#CC00CC" stroke-width="2"/>
</g>
</svg>
