<svg width="20" height="23" viewBox="0 0 20 23" fill="none" xmlns="http://www.w3.org/2000/svg">
<g id="Group">
<path id="Vector" d="M6.41245 5.5625L6.5114 5.64896L15.351 14.4875C15.4668 14.6032 15.5538 14.7447 15.6047 14.9003C15.6557 15.0559 15.6692 15.2214 15.6443 15.3832C15.6193 15.5451 15.5566 15.6988 15.4611 15.8318C15.3656 15.9648 15.2401 16.0735 15.0947 16.149L14.9739 16.201L4.1562 20.1875C2.12286 20.9375 0.142654 19.026 0.760362 16.9958L0.812446 16.8438L4.79786 6.02604C4.85055 5.88274 4.9341 5.75278 5.04258 5.64535C5.15107 5.53792 5.28185 5.45565 5.42566 5.40437C5.56947 5.35309 5.72279 5.33405 5.87477 5.34859C6.02675 5.36314 6.17368 5.41091 6.30515 5.48854L6.41245 5.5625ZM15.8197 10.0875C16.7687 10.1375 18.0697 10.3375 19.201 11.0167C19.4303 11.1526 19.5988 11.3714 19.6717 11.6278C19.7446 11.8842 19.7165 12.1589 19.593 12.3952C19.4695 12.6315 19.2601 12.8114 19.0079 12.8979C18.7558 12.9845 18.48 12.9711 18.2374 12.8604L18.1291 12.8031C17.4187 12.376 16.5104 12.2094 15.7104 12.1677C15.3807 12.1495 15.0503 12.1509 14.7208 12.1719L14.3916 12.2042C14.1199 12.2392 13.8453 12.1658 13.6273 11.9999C13.4093 11.8339 13.2655 11.5887 13.227 11.3174C13.1885 11.0462 13.2584 10.7707 13.4216 10.5506C13.5848 10.3305 13.8281 10.1836 14.0989 10.1417C14.6694 10.0681 15.2457 10.0496 15.8197 10.0865M17.9291 7.18438C18.1945 7.18493 18.4497 7.28678 18.6426 7.46912C18.8354 7.65146 18.9514 7.90055 18.9668 8.16551C18.9823 8.43048 18.896 8.69133 18.7256 8.89482C18.5552 9.09831 18.3135 9.22907 18.0499 9.26042L17.9291 9.26771H17.1916C16.9262 9.26715 16.671 9.1653 16.4782 8.98296C16.2853 8.80062 16.1693 8.55153 16.1539 8.28657C16.1385 8.02161 16.2248 7.76075 16.3952 7.55726C16.5656 7.35378 16.8072 7.22301 17.0708 7.19167L17.1916 7.18438H17.9291ZM14.6145 6.38542C14.7939 6.56478 14.9016 6.80343 14.9175 7.05658C14.9335 7.30973 14.8565 7.56 14.701 7.76042L14.6145 7.85833L13.5093 8.96354C13.3219 9.15036 13.0703 9.25883 12.8058 9.2669C12.5413 9.27498 12.2836 9.18207 12.0851 9.00703C11.8866 8.832 11.7621 8.58797 11.737 8.32451C11.7119 8.06104 11.7881 7.79791 11.9499 7.58854L12.0364 7.49063L13.1406 6.38646C13.2373 6.28961 13.3522 6.21278 13.4787 6.16035C13.6051 6.10793 13.7407 6.08095 13.8776 6.08095C14.0144 6.08095 14.15 6.10793 14.2764 6.16035C14.4029 6.21278 14.5178 6.28857 14.6145 6.38542ZM11.9197 0.901041C12.3864 2.30312 12.1364 3.83854 11.8447 4.91146C11.6702 5.58059 11.4294 6.23067 11.126 6.85208C11.0026 7.09934 10.7861 7.28747 10.524 7.37509C10.262 7.4627 9.97585 7.44262 9.72859 7.31927C9.48133 7.19592 9.2932 6.97939 9.20559 6.71733C9.11797 6.45527 9.13805 6.16913 9.2614 5.92188C9.50377 5.4228 9.6957 4.90076 9.83432 4.36354C10.0708 3.49688 10.1895 2.55625 10.0072 1.78542L9.9437 1.56042C9.8983 1.43014 9.87923 1.29215 9.8876 1.15445C9.89597 1.01675 9.93161 0.882084 9.99244 0.758269C10.0533 0.634453 10.1381 0.523955 10.242 0.433189C10.3459 0.342423 10.4668 0.273198 10.5976 0.229531C10.7285 0.185865 10.8667 0.168627 11.0043 0.178819C11.1419 0.18901 11.2761 0.226428 11.3991 0.288901C11.5221 0.351373 11.6314 0.437655 11.7208 0.542738C11.8102 0.647822 11.8778 0.769613 11.9197 0.901041ZM17.5604 3.44062C17.7556 3.63597 17.8653 3.90087 17.8653 4.17708C17.8653 4.4533 17.7556 4.7182 17.5604 4.91354L16.8239 5.65C16.7278 5.74949 16.6129 5.82885 16.4858 5.88344C16.3587 5.93803 16.222 5.96677 16.0837 5.96797C15.9454 5.96917 15.8082 5.94281 15.6802 5.89044C15.5522 5.83806 15.4359 5.76072 15.3381 5.66291C15.2403 5.56511 15.1629 5.4488 15.1105 5.32079C15.0582 5.19277 15.0318 5.0556 15.033 4.91729C15.0342 4.77898 15.063 4.64229 15.1175 4.5152C15.1721 4.38812 15.2515 4.27317 15.351 4.17708L16.0874 3.44062C16.2828 3.24534 16.5477 3.13564 16.8239 3.13564C17.1001 3.13564 17.365 3.24534 17.5604 3.44062Z" fill="#600FA0"/>
</g>
</svg>
