<svg width="25" height="25" viewBox="0 0 25 25" fill="none" xmlns="http://www.w3.org/2000/svg">
<g id="basil:headset-solid">
<path id="Vector" d="M4.46354 8.69167C3.85512 8.85549 3.31768 9.21535 2.93446 9.71551C2.55124 10.2157 2.34362 10.8282 2.34375 11.4583V14.5833C2.34375 15.3431 2.64555 16.0717 3.18277 16.6089C3.71998 17.1461 4.4486 17.4479 5.20833 17.4479H7.8125C8.0197 17.4479 8.21841 17.3656 8.36493 17.2191C8.51144 17.0726 8.59375 16.8739 8.59375 16.6667V9.375C8.59375 9.1678 8.51144 8.96909 8.36493 8.82257C8.21841 8.67606 8.0197 8.59375 7.8125 8.59375H6.05729C6.50417 6.02083 9.12396 3.90625 12.5 3.90625C15.876 3.90625 18.4958 6.02083 18.9427 8.59375H17.1875C16.9803 8.59375 16.7816 8.67606 16.6351 8.82257C16.4886 8.96909 16.4062 9.1678 16.4062 9.375V16.6667C16.4062 17.0979 16.7562 17.4479 17.1875 17.4479H18.9198C18.7439 18.1895 18.3229 18.85 17.725 19.3226C17.1271 19.7952 16.3872 20.0523 15.625 20.0521H14.4323C14.251 19.6039 13.9194 19.2327 13.4945 19.0021C13.0695 18.7716 12.5776 18.696 12.103 18.7884C11.6285 18.8807 11.2008 19.1352 10.8933 19.5083C10.5858 19.8814 10.4177 20.3499 10.4177 20.8333C10.4177 21.3168 10.5858 21.7852 10.8933 22.1583C11.2008 22.5314 11.6285 22.786 12.103 22.8783C12.5776 22.9707 13.0695 22.8951 13.4945 22.6645C13.9194 22.434 14.251 22.0628 14.4323 21.6146H15.625C18.125 21.6146 20.1917 19.7604 20.526 17.3531C21.1369 17.1911 21.6771 16.8316 22.0624 16.3306C22.4477 15.8297 22.6565 15.2153 22.6562 14.5833V11.4583C22.6564 10.8282 22.4488 10.2157 22.0655 9.71551C21.6823 9.21535 21.1449 8.85549 20.5365 8.69167C20.1385 5.04167 16.5896 2.34375 12.5 2.34375C8.41042 2.34375 4.86146 5.04167 4.46354 8.69167Z" fill="#600FA0"/>
</g>
</svg>
