<svg width="30" height="30" viewBox="0 0 30 30" fill="none" xmlns="http://www.w3.org/2000/svg">
<g id="material-symbols:settings-rounded">
<path id="Vector" d="M13.5313 27.5C12.9688 27.5 12.4847 27.3125 12.0788 26.9375C11.673 26.5625 11.428 26.1042 11.3438 25.5625L11.0626 23.5C10.7918 23.3958 10.5368 23.2708 10.2976 23.125C10.0584 22.9792 9.82385 22.8229 9.59385 22.6562L7.65635 23.4688C7.13551 23.6979 6.61468 23.7188 6.09385 23.5312C5.57301 23.3438 5.16676 23.0104 4.8751 22.5312L3.40635 19.9688C3.11468 19.4896 3.03135 18.9792 3.15635 18.4375C3.28135 17.8958 3.5626 17.4479 4.0001 17.0938L5.65635 15.8438C5.63551 15.6979 5.6251 15.5571 5.6251 15.4212V14.5775C5.6251 14.4425 5.63551 14.3021 5.65635 14.1562L4.0001 12.9062C3.5626 12.5521 3.28135 12.1042 3.15635 11.5625C3.03135 11.0208 3.11468 10.5104 3.40635 10.0312L4.8751 7.46875C5.16676 6.98958 5.57301 6.65625 6.09385 6.46875C6.61468 6.28125 7.13551 6.30208 7.65635 6.53125L9.59385 7.34375C9.82301 7.17708 10.0626 7.02083 10.3126 6.875C10.5626 6.72917 10.8126 6.60417 11.0626 6.5L11.3438 4.4375C11.4272 3.89583 11.6722 3.4375 12.0788 3.0625C12.4855 2.6875 12.9697 2.5 13.5313 2.5H16.4688C17.0313 2.5 17.5159 2.6875 17.9226 3.0625C18.3293 3.4375 18.5738 3.89583 18.6563 4.4375L18.9376 6.5C19.2084 6.60417 19.4638 6.72917 19.7038 6.875C19.9438 7.02083 20.178 7.17708 20.4063 7.34375L22.3438 6.53125C22.8647 6.30208 23.3855 6.28125 23.9063 6.46875C24.4272 6.65625 24.8334 6.98958 25.1251 7.46875L26.5938 10.0312C26.8855 10.5104 26.9689 11.0208 26.8438 11.5625C26.7188 12.1042 26.4376 12.5521 26.0001 12.9062L24.3438 14.1562C24.3647 14.3021 24.3751 14.4429 24.3751 14.5787V15.4212C24.3751 15.5571 24.3543 15.6979 24.3126 15.8438L25.9688 17.0938C26.4063 17.4479 26.6876 17.8958 26.8126 18.4375C26.9376 18.9792 26.8543 19.4896 26.5626 19.9688L25.0626 22.5312C24.7709 23.0104 24.3647 23.3438 23.8438 23.5312C23.323 23.7188 22.8022 23.6979 22.2813 23.4688L20.4063 22.6562C20.1772 22.8229 19.9376 22.9792 19.6876 23.125C19.4376 23.2708 19.1876 23.3958 18.9376 23.5L18.6563 25.5625C18.573 26.1042 18.3284 26.5625 17.9226 26.9375C17.5168 27.3125 17.0322 27.5 16.4688 27.5H13.5313ZM15.0626 19.375C16.2709 19.375 17.3022 18.9479 18.1563 18.0938C19.0105 17.2396 19.4376 16.2083 19.4376 15C19.4376 13.7917 19.0105 12.7604 18.1563 11.9062C17.3022 11.0521 16.2709 10.625 15.0626 10.625C13.8334 10.625 12.7968 11.0521 11.9526 11.9062C11.1084 12.7604 10.6868 13.7917 10.6876 15C10.6884 16.2083 11.1105 17.2396 11.9538 18.0938C12.7972 18.9479 13.8334 19.375 15.0626 19.375Z" fill="#310083"/>
</g>
</svg>
