<svg width="46" height="46" viewBox="0 0 46 46" fill="none" xmlns="http://www.w3.org/2000/svg">
<g id="Group">
<path id="Vector" fill-rule="evenodd" clip-rule="evenodd" d="M23 28C23 26.0109 23.7902 24.1032 25.1967 22.6967C26.6032 21.2902 28.5109 20.5 30.5 20.5H40.5C41.8261 20.5 43.0979 21.0268 44.0355 21.9645C44.9732 22.9021 45.5 24.1739 45.5 25.5V30.5C45.5 31.8261 44.9732 33.0979 44.0355 34.0355C43.0979 34.9732 41.8261 35.5 40.5 35.5H30.5C28.5109 35.5 26.6032 34.7098 25.1967 33.3033C23.7902 31.8968 23 29.9891 23 28ZM30.5 25.5C29.837 25.5 29.2011 25.7634 28.7322 26.2322C28.2634 26.7011 28 27.337 28 28C28 28.663 28.2634 29.2989 28.7322 29.7678C29.2011 30.2366 29.837 30.5 30.5 30.5H40.5V25.5H30.5Z" fill="#600FA0"/>
<path id="Vector_2" fill-rule="evenodd" clip-rule="evenodd" d="M23.7325 1.23245C24.2013 0.763777 24.8371 0.500488 25.5 0.500488C26.1629 0.500488 26.7987 0.763777 27.2675 1.23245L34.035 7.99995H26.965L23.7325 4.76745C23.2638 4.29863 23.0005 3.66286 23.0005 2.99995C23.0005 2.33704 23.2638 1.70127 23.7325 1.23245ZM24.035 7.99995L17.2675 1.23245C16.7987 0.763777 16.1629 0.500488 15.5 0.500488C14.8371 0.500488 14.2013 0.763777 13.7325 1.23245L6.965 7.99995H24.035ZM4.465 10.5L4.325 10.6375C3.23427 10.9012 2.26395 11.5241 1.57016 12.4061C0.876368 13.2881 0.499434 14.3778 0.500001 15.5V40.5C0.500001 41.826 1.02678 43.0978 1.96447 44.0355C2.90215 44.9732 4.17392 45.5 5.5 45.5H35.5C36.8261 45.5 38.0979 44.9732 39.0355 44.0355C39.9732 43.0978 40.5 41.826 40.5 40.5H30.5C27.1848 40.5 24.0054 39.183 21.6612 36.8388C19.317 34.4946 18 31.3152 18 28C18 24.6847 19.317 21.5053 21.6612 19.1611C24.0054 16.8169 27.1848 15.5 30.5 15.5H40.5C40.5006 14.3778 40.1236 13.2881 39.4298 12.4061C38.736 11.5241 37.7657 10.9012 36.675 10.6375L36.535 10.5H4.465Z" fill="#600FA0"/>
</g>
</svg>
