<svg width="30" height="30" viewBox="0 0 30 30" fill="none" xmlns="http://www.w3.org/2000/svg">
<g id="simple-icons:zelle">
<path id="Vector" d="M16.9488 30H13.3976C13.2375 30 13.0839 29.9364 12.9707 29.8232C12.8574 29.7099 12.7938 29.5564 12.7938 29.3962V25.94H7.04759C6.8269 25.9397 6.61534 25.8519 6.45929 25.6958C6.30323 25.5397 6.21542 25.3282 6.21509 25.1075V22.315C6.21521 22.1283 6.27769 21.9471 6.39259 21.8L16.5663 8.8225H7.50384C7.28271 8.8225 7.07065 8.73466 6.91429 8.5783C6.75793 8.42194 6.67009 8.20987 6.67009 7.98875V4.8925C6.67009 4.43375 7.04384 4.06 7.50259 4.06H12.7901V0.60375C12.7901 0.27125 13.0613 0 13.3938 0H16.9451C17.2776 0 17.5488 0.27125 17.5488 0.60375V4.06H22.9526C23.4113 4.06 23.7851 4.43375 23.7851 4.8925V7.56375C23.7848 7.7494 23.7228 7.92967 23.6088 8.07625L13.3713 21.1775H22.9526C23.4113 21.1775 23.7851 21.5513 23.7851 22.01V25.1062C23.7851 25.3272 23.6974 25.539 23.5413 25.6954C23.3852 25.8517 23.1735 25.9397 22.9526 25.94H17.5526V29.3962C17.5526 29.5564 17.489 29.7099 17.3758 29.8232C17.2625 29.9364 17.109 30 16.9488 30Z" fill="#CC00CC"/>
</g>
</svg>
